# xmcd CD database file
# Copyright 1993-1996 (C) Ti Kan
#
# Track frame offsets:
#    150
#    10517
#    20600
#    32012
#    39817
#    58437
#    68567
#    80752
#    90057
#    100182
#    109212
#    122417
#    133675
#    141962
#    151720
#    163075
#    173470
#    186222
#    197312
#    210940
#    220865
#    228995
#    236547
#    249290
#    257160
#
# Disc length: 3542 seconds
#
# Revision: 0
# Processed by: cddbd v1.4b41PL1 Copyright (c) Steve Scherf et al.
# Submitted via: MyCDplayer 2.2.0  (wjohn@fix.net)
#
DISCID=370dd419
DTITLE=Various Artist - 
DTITLE=101 Blues and Soul Classics Volume 1
DYEAR=1900
DGENRE=
TTITLE0=I Need Your Loving
TTITLE1=What's your name
TTITLE2=All In My Mind
TTITLE3=Ya Ya
TTITLE4=Mama's Baby Daddy's Maybe
TTITLE5=I Wish Someone Would Care
TTITLE6=It's Too Late
TTITLE7=Mocking Bird
TTITLE8=Lavender Blue
TTITLE9=If You Gotta Make A Dool Of Somebody
TTITLE10=Dust My Blues
TTITLE11=Boom Boom
TTITLE12=Love Potion Number 9
TTITLE13=Look In My Eyes
TTITLE14=You Send Me
TTITLE15=Get On Up
TTITLE16=To The Other Woman
TTITLE17=I'm Gonna Get Married
TTITLE18=Most Of All
TTITLE19=At My Front Door
TTITLE20=The Angels Listening
TTITLE21=Pretty Girls Everywhere
TTITLE22=Why Don't You Write Me
TTITLE23=Cherry Pie
TTITLE24=Short Fat Fanny
EXTD=
EXTT0=Don Gardner and Dee Dee Ford
EXTT1=Don and Juan
EXTT2=Maxine Brown
EXTT3=Lee Dorsey
EXTT4=Swamp Dogg
EXTT5=Irma Thomas
EXTT6=Tarheel Slim
EXTT7=Inez and Charlie Foxx
EXTT8=Sammy Turner
EXTT9=James Ray
EXTT10=Elmore James
EXTT11=John Lee Hooker
EXTT12=Clovers
EXTT13=Chantels
EXTT14=Sam Cooke
EXTT15=Esquires
EXTT16=Doris Duke
EXTT17=Lloyd Price
EXTT18=Moon Glows
EXTT19=Eldorados
EXTT20=Crests
EXTT21=Eugene Church
EXTT22=Jacks
EXTT23=Marvin and Johnny
EXTT24=Little Richards
PLAYORDER=
